<svg width="211" height="243" viewBox="0 0 211 243" fill="none" xmlns="http://www.w3.org/2000/svg">
<g opacity="0.3">
<path d="M201.915 239.83H196.141V242.307H201.915V239.83Z" stroke="#244B55" stroke-miterlimit="10"/>
<path d="M210.407 239.83H204.633V242.307H210.407V239.83Z" stroke="#244B55" stroke-miterlimit="10"/>
<path d="M60.9367 5.30528V209.364C60.9367 210.533 60.4744 211.653 59.6514 212.479C58.8285 213.306 57.7123 213.77 56.5484 213.77C55.3846 213.77 54.2684 213.306 53.4455 212.479C52.6225 211.653 52.1602 210.533 52.1602 209.364V5.30528C52.1602 4.13679 52.6225 3.01615 53.4455 2.18991C54.2684 1.36366 55.3846 0.899475 56.5484 0.899475C57.7123 0.899475 58.8285 1.36366 59.6514 2.18991C60.4744 3.01615 60.9367 4.13679 60.9367 5.30528V5.30528Z" stroke="#244B55" stroke-miterlimit="10"/>
<path d="M77.7047 5.30477V209.364C77.7047 210.53 77.2434 211.648 76.4222 212.472C75.6011 213.297 74.4873 213.76 73.326 213.76C72.1647 213.76 71.0509 213.297 70.2298 212.472C69.4086 211.648 68.9473 210.53 68.9473 209.364V5.30477C68.9473 4.13883 69.4086 3.02064 70.2298 2.19619C71.0509 1.37174 72.1647 0.908569 73.326 0.908569C74.4873 0.908569 75.6011 1.37174 76.4222 2.19619C77.2434 3.02064 77.7047 4.13883 77.7047 5.30477V5.30477Z" stroke="#244B55" stroke-miterlimit="10"/>
<path d="M94.4847 5.30487V209.364C94.5124 209.959 94.4195 210.554 94.2117 211.112C94.0039 211.67 93.6855 212.18 93.2758 212.611C92.866 213.042 92.3734 213.385 91.8277 213.62C91.2821 213.854 90.6947 213.975 90.1012 213.975C89.5077 213.975 88.9203 213.854 88.3747 213.62C87.829 213.385 87.3364 213.042 86.9266 212.611C86.5169 212.18 86.1984 211.67 85.9906 211.112C85.7828 210.554 85.69 209.959 85.7177 209.364V5.30487C85.69 4.70963 85.7828 4.11494 85.9906 3.55677C86.1984 2.99859 86.5169 2.48854 86.9266 2.05747C87.3364 1.62639 87.829 1.28325 88.3747 1.04881C88.9203 0.81436 89.5077 0.693481 90.1012 0.693481C90.6947 0.693481 91.2821 0.81436 91.8277 1.04881C92.3734 1.28325 92.866 1.62639 93.2758 2.05747C93.6855 2.48854 94.0039 2.99859 94.2117 3.55677C94.4195 4.11494 94.5124 4.70963 94.4847 5.30487V5.30487Z" stroke="#244B55" stroke-miterlimit="10"/>
<path d="M111.28 5.30528V209.364C111.28 210.533 110.818 211.653 109.995 212.479C109.172 213.306 108.056 213.77 106.892 213.77C105.728 213.77 104.612 213.306 103.789 212.479C102.966 211.653 102.504 210.533 102.504 209.364V5.30528C102.504 4.13679 102.966 3.01615 103.789 2.18991C104.612 1.36366 105.728 0.899475 106.892 0.899475C108.056 0.899475 109.172 1.36366 109.995 2.18991C110.818 3.01615 111.28 4.13679 111.28 5.30528V5.30528Z" stroke="#244B55" stroke-miterlimit="10"/>
<path d="M128.05 5.30528V209.364C128.05 210.533 127.588 211.653 126.765 212.479C125.942 213.306 124.826 213.77 123.662 213.77C122.498 213.77 121.382 213.306 120.559 212.479C119.736 211.653 119.273 210.533 119.273 209.364V5.30528C119.273 4.13679 119.736 3.01615 120.559 2.18991C121.382 1.36366 122.498 0.899475 123.662 0.899475C124.826 0.899475 125.942 1.36366 126.765 2.18991C127.588 3.01615 128.05 4.13679 128.05 5.30528V5.30528Z" stroke="#244B55" stroke-miterlimit="10"/>
<path d="M144.82 5.30528V209.364C144.82 210.533 144.357 211.653 143.534 212.479C142.711 213.306 141.595 213.77 140.431 213.77C139.267 213.77 138.151 213.306 137.328 212.479C136.505 211.653 136.043 210.533 136.043 209.364V5.30528C136.043 4.13679 136.505 3.01615 137.328 2.18991C138.151 1.36366 139.267 0.899475 140.431 0.899475C141.595 0.899475 142.711 1.36366 143.534 2.18991C144.357 3.01615 144.82 4.13679 144.82 5.30528V5.30528Z" stroke="#244B55" stroke-miterlimit="10"/>
<path d="M161.598 5.30487V209.364C161.626 209.959 161.533 210.554 161.325 211.112C161.117 211.67 160.799 212.18 160.389 212.611C159.979 213.042 159.487 213.385 158.941 213.62C158.395 213.854 157.808 213.975 157.214 213.975C156.621 213.975 156.034 213.854 155.488 213.62C154.942 213.385 154.45 213.042 154.04 212.611C153.63 212.18 153.312 211.67 153.104 211.112C152.896 210.554 152.803 209.959 152.831 209.364V5.30487C152.803 4.70963 152.896 4.11494 153.104 3.55677C153.312 2.99859 153.63 2.48854 154.04 2.05747C154.45 1.62639 154.942 1.28325 155.488 1.04881C156.034 0.81436 156.621 0.693481 157.214 0.693481C157.808 0.693481 158.395 0.81436 158.941 1.04881C159.487 1.28325 159.979 1.62639 160.389 2.05747C160.799 2.48854 161.117 2.99859 161.325 3.55677C161.533 4.11494 161.626 4.70963 161.598 5.30487Z" stroke="#244B55" stroke-miterlimit="10"/>
<path d="M178.377 5.30487V209.364C178.405 209.959 178.312 210.554 178.104 211.112C177.897 211.67 177.578 212.18 177.168 212.611C176.759 213.042 176.266 213.385 175.72 213.62C175.175 213.854 174.587 213.975 173.994 213.975C173.4 213.975 172.813 213.854 172.267 213.62C171.722 213.385 171.229 213.042 170.819 212.611C170.409 212.18 170.091 211.67 169.883 211.112C169.675 210.554 169.583 209.959 169.61 209.364V5.30487C169.583 4.70963 169.675 4.11494 169.883 3.55677C170.091 2.99859 170.409 2.48854 170.819 2.05747C171.229 1.62639 171.722 1.28325 172.267 1.04881C172.813 0.81436 173.4 0.693481 173.994 0.693481C174.587 0.693481 175.175 0.81436 175.72 1.04881C176.266 1.28325 176.759 1.62639 177.168 2.05747C177.578 2.48854 177.897 2.99859 178.104 3.55677C178.312 4.11494 178.405 4.70963 178.377 5.30487V5.30487Z" stroke="#244B55" stroke-miterlimit="10"/>
<path d="M44.1594 5.30528V209.364C44.1594 210.533 43.6971 211.653 42.8741 212.479C42.0511 213.306 40.935 213.77 39.7711 213.77C38.6073 213.77 37.4911 213.306 36.6681 212.479C35.8451 211.653 35.3828 210.533 35.3828 209.364V5.30528C35.3828 4.13679 35.8451 3.01615 36.6681 2.18991C37.4911 1.36366 38.6073 0.899475 39.7711 0.899475C40.935 0.899475 42.0511 1.36366 42.8741 2.18991C43.6971 3.01615 44.1594 4.13679 44.1594 5.30528V5.30528Z" stroke="#244B55" stroke-miterlimit="10"/>
<path d="M52.1584 5.30505H44.1562V26.9309H52.1584V5.30505Z" stroke="#244B55" stroke-miterlimit="10"/>
<path d="M68.9493 5.30505H60.9375V26.9309H68.9493V5.30505Z" stroke="#244B55" stroke-miterlimit="10"/>
<path d="M85.7168 5.30505H77.7051V26.9309H85.7168V5.30505Z" stroke="#244B55" stroke-miterlimit="10"/>
<path d="M102.494 5.30505H94.4824V26.9309H102.494V5.30505Z" stroke="#244B55" stroke-miterlimit="10"/>
<path d="M119.274 5.30505H111.271V26.9309H119.274V5.30505Z" stroke="#244B55" stroke-miterlimit="10"/>
<path d="M136.051 5.30505H128.049V26.9309H136.051V5.30505Z" stroke="#244B55" stroke-miterlimit="10"/>
<path d="M152.832 5.30505H144.82V26.9309H152.832V5.30505Z" stroke="#244B55" stroke-miterlimit="10"/>
<path d="M169.611 5.30505H161.6V26.9309H169.611V5.30505Z" stroke="#244B55" stroke-miterlimit="10"/>
<path d="M35.3793 189.716H29.6621V208.529H35.3793V189.716Z" stroke="#244B55" stroke-miterlimit="10"/>
<path d="M52.1584 189.716H44.1562V208.529H52.1584V189.716Z" stroke="#244B55" stroke-miterlimit="10"/>
<path d="M68.9493 189.716H60.9375V208.529H68.9493V189.716Z" stroke="#244B55" stroke-miterlimit="10"/>
<path d="M85.7168 189.716H77.7051V208.529H85.7168V189.716Z" stroke="#244B55" stroke-miterlimit="10"/>
<path d="M102.494 189.716H94.4824V208.529H102.494V189.716Z" stroke="#244B55" stroke-miterlimit="10"/>
<path d="M119.274 189.716H111.271V208.529H119.274V189.716Z" stroke="#244B55" stroke-miterlimit="10"/>
<path d="M136.051 189.716H128.049V208.529H136.051V189.716Z" stroke="#244B55" stroke-miterlimit="10"/>
<path d="M152.832 189.716H144.82V208.529H152.832V189.716Z" stroke="#244B55" stroke-miterlimit="10"/>
<path d="M169.611 189.716H161.6V208.529H169.611V189.716Z" stroke="#244B55" stroke-miterlimit="10"/>
<path d="M184.106 189.716H178.379V208.529H184.106V189.716Z" stroke="#244B55" stroke-miterlimit="10"/>
<path d="M35.3793 5.30505H29.6621V26.9309H35.3793V5.30505Z" stroke="#244B55" stroke-miterlimit="10"/>
<path d="M29.6739 9.73944H26.4902V22.4961H29.6739V9.73944Z" stroke="#244B55" stroke-miterlimit="10"/>
<path d="M26.4878 12.053H24.2793V20.1927H26.4878V12.053Z" stroke="#244B55" stroke-miterlimit="10"/>
<path d="M184.106 5.30505H178.379V26.9309H184.106V5.30505Z" stroke="#244B55" stroke-miterlimit="10"/>
<path d="M184.094 22.4961H187.277V9.73942H184.094V22.4961Z" stroke="#244B55" stroke-miterlimit="10"/>
<path d="M187.288 20.183H189.496V12.0433H187.288V20.183Z" stroke="#244B55" stroke-miterlimit="10"/>
<path d="M193.435 14.3566H189.486V17.889H193.435V14.3566Z" stroke="#244B55" stroke-miterlimit="10"/>
<path d="M195.138 15.2679H193.445V16.9669H195.138V15.2679Z" stroke="#244B55" stroke-miterlimit="10"/>
<path d="M29.6739 192.739H26.4902V205.495H29.6739V192.739Z" stroke="#244B55" stroke-miterlimit="10"/>
<path d="M23.8213 199.112C23.8213 200.192 23.3942 201.227 22.634 201.99C21.8738 202.754 20.8427 203.182 19.7676 203.182V203.182V195.062C20.3005 195.059 20.8286 195.162 21.3211 195.367C21.8136 195.571 22.2606 195.872 22.6357 196.252C22.7705 196.387 22.8952 196.531 23.0086 196.684C23.5384 197.382 23.8241 198.235 23.8213 199.112Z" stroke="#244B55" stroke-miterlimit="10"/>
<path d="M19.7406 196.684H16.4805V201.56H19.7406V196.684Z" stroke="#244B55" stroke-miterlimit="10"/>
<path d="M26.4803 196.684V201.56H23.0098C23.5372 200.858 23.8224 200.002 23.8224 199.122C23.8224 198.242 23.5372 197.386 23.0098 196.684H26.4803Z" stroke="#244B55" stroke-miterlimit="10"/>
<path d="M11.9379 167.638H9.22266V170.508H11.9379V167.638Z" stroke="#244B55" stroke-miterlimit="10"/>
<path d="M11.9379 176.92H9.22266V183.803H11.9379V176.92Z" stroke="#244B55" stroke-miterlimit="10"/>
<path d="M11.9379 189.139H9.22266V189.206H11.9379V189.139Z" stroke="#244B55" stroke-miterlimit="10"/>
<path d="M11.9379 194.14H9.22266V194.198H11.9379V194.14Z" stroke="#244B55" stroke-miterlimit="10"/>
<path d="M20.1498 171.555V175.864H17.7023V176.92H3.45706V175.864H1V171.555H3.45706V170.508H17.7023V171.555H20.1498Z" stroke="#244B55" stroke-miterlimit="10"/>
<path d="M14.7655 188.016V189.139H6.38086V188.016C6.38086 186.9 6.82174 185.829 7.60678 185.039C8.39182 184.249 9.45691 183.804 10.5684 183.802V183.802C11.6815 183.802 12.7491 184.246 13.5362 185.036C14.3233 185.826 14.7655 186.898 14.7655 188.016V188.016Z" stroke="#244B55" stroke-miterlimit="10"/>
<path d="M16.4792 189.207V194.198H14.7678V194.141H6.37365V194.198H4.67188V189.207H16.4792Z" stroke="#244B55" stroke-miterlimit="10"/>
<path d="M14.775 194.14H6.38086V194.198H14.775V194.14Z" stroke="#244B55" stroke-miterlimit="10"/>
<path d="M14.775 194.198H6.38086V196.674H14.775V194.198Z" stroke="#244B55" stroke-miterlimit="10"/>
<path d="M14.775 194.14H6.38086V194.198H14.775V194.14Z" stroke="#244B55" stroke-miterlimit="10"/>
<path d="M16.4792 196.684H4.67188V201.56H16.4792V196.684Z" stroke="#244B55" stroke-miterlimit="10"/>
<path d="M14.775 201.56H6.38086V204.862H14.775V201.56Z" stroke="#244B55" stroke-miterlimit="10"/>
<path d="M16.4792 204.871C16.4831 205.589 16.3449 206.301 16.0727 206.964C15.8006 207.628 15.3999 208.231 14.8938 208.738C14.3878 209.246 13.7865 209.647 13.1248 209.919C12.4632 210.191 11.7543 210.328 11.0393 210.323H10.0832C9.37064 210.325 8.66484 210.184 8.00649 209.91C7.34815 209.637 6.75025 209.235 6.24727 208.728C5.74428 208.221 5.34614 207.62 5.07577 206.958C4.80541 206.296 4.66817 205.587 4.67195 204.871H16.4792Z" stroke="#244B55" stroke-miterlimit="10"/>
<path d="M11.0392 210.314C11.3369 210.316 11.6343 210.294 11.9283 210.247V240.963H9.22266V210.247C9.51668 210.294 9.81407 210.316 10.1118 210.314H11.0392Z" stroke="#244B55" stroke-miterlimit="10"/>
<path d="M9.22184 239.82H3.44727V242.306H9.22184V239.82Z" stroke="#244B55" stroke-miterlimit="10"/>
<path d="M17.7023 239.82H11.9277V242.306H17.7023V239.82Z" stroke="#244B55" stroke-miterlimit="10"/>
<path d="M188.148 193.065H184.104V205.188H188.148V193.065Z" stroke="#244B55" stroke-miterlimit="10"/>
<path d="M194.507 196.309V201.934C194.507 202.474 194.293 202.992 193.913 203.373C193.533 203.755 193.018 203.969 192.48 203.969C191.942 203.969 191.427 203.755 191.047 203.373C190.667 202.992 190.453 202.474 190.453 201.934V196.309C190.453 195.77 190.667 195.252 191.047 194.871C191.427 194.489 191.942 194.275 192.48 194.275C193.018 194.275 193.533 194.489 193.913 194.871C194.293 195.252 194.507 195.77 194.507 196.309Z" stroke="#244B55" stroke-miterlimit="10"/>
<path d="M190.454 196.309H188.141V201.723H190.454V196.309Z" stroke="#244B55" stroke-miterlimit="10"/>
<path d="M199.621 196.309H194.506V201.723H199.621V196.309Z" stroke="#244B55" stroke-miterlimit="10"/>
<path d="M209.631 196.309H206.926V201.723H209.631V196.309Z" stroke="#244B55" stroke-miterlimit="10"/>
<path d="M207.978 186.902V194.313H206.888V211.389H204.593V240.943H201.917V211.36H199.622V194.313H198.57V186.931C198.57 185.679 199.066 184.477 199.948 183.592C200.83 182.706 202.027 182.209 203.274 182.209C204.522 182.209 205.718 182.706 206.6 183.592C207.482 184.477 207.978 185.679 207.978 186.931V186.902Z" stroke="#244B55" stroke-miterlimit="10"/>
</g>
</svg>
